<?xml version="1.0" standalone="no"?>
<!DOCTYPE svg PUBLIC "-//W3C//DTD SVG 20010904//EN"
 "http://www.w3.org/TR/2001/REC-SVG-20010904/DTD/svg10.dtd">
<svg version="1.0" xmlns="http://www.w3.org/2000/svg"
 width="468.000000pt" height="346.000000pt" viewBox="0 0 468.000000 346.000000"
 preserveAspectRatio="xMidYMid meet">

<g transform="translate(0.000000,346.000000) scale(0.100000,-0.100000)"
fill="#000000" 
stroke="none">
<path d="M3742 3200 c492 -63 619 -479 312 -1025 -366 -651 -1189 -1314 -1982
-1599 -376 -135 -735 -156 -934 -55 -109 55 -185 133 -228 234 -14 33 -19 40
-15 20 11 -60 65 -152 115 -199 55 -51 160 -105 250 -127 94 -24 371 -18 510
10 537 109 1122 425 1655 894 493 433 800 897 844 1277 40 334 -156 554 -509
574 -83 5 -83 5 -18 -4z"/>
<path d="M3440 3115 c-208 -31 -453 -113 -708 -235 -153 -74 -402 -214 -402
-226 0 -3 15 3 33 14 237 142 561 273 802 324 121 25 313 30 395 9 136 -34
226 -111 261 -222 25 -82 24 -157 -6 -274 -102 -401 -564 -931 -1160 -1329
-383 -256 -750 -417 -1073 -471 -123 -21 -308 -16 -389 9 -117 37 -193 116
-225 233 l-18 68 4 -85 c5 -112 33 -184 98 -255 371 -406 1652 87 2499 962
331 343 547 702 589 978 57 376 -218 572 -700 500z"/>
<path d="M2283 2629 c-35 -22 -46 -37 -15 -20 22 13 58 40 52 41 -3 0 -20 -10
-37 -21z"/>
<path d="M2652 2350 c-107 -28 -205 -84 -281 -160 -120 -120 -175 -261 -175
-450 0 -186 48 -320 155 -435 58 -62 143 -125 168 -125 12 0 217 136 275 183
l29 23 -66 17 c-82 20 -138 56 -177 115 -41 62 -60 131 -60 218 0 235 156 379
372 344 77 -13 131 -45 171 -101 l28 -39 155 0 154 0 -6 28 c-4 15 -22 60 -40
100 -62 137 -192 240 -358 284 -93 24 -246 23 -344 -2z"/>
<path d="M1070 1740 l0 -620 155 0 155 0 0 180 0 180 88 0 87 -1 103 -179 104
-180 179 0 c164 0 179 1 179 18 0 9 -50 98 -111 197 -61 99 -115 188 -121 198
-8 15 0 29 44 75 129 136 161 331 83 508 -32 72 -127 167 -199 199 -85 38
-159 45 -463 45 l-283 0 0 -620z m582 330 c99 -28 127 -189 47 -266 -30 -28
-33 -29 -170 -34 -78 -3 -143 -3 -145 -1 -7 7 -4 297 3 304 10 11 224 8 265
-3z"/>
<path d="M2830 1685 l0 -135 100 0 100 0 137 135 138 134 -237 1 -238 0 0
-135z"/>
<path d="M882 830 c0 -14 2 -19 5 -12 2 6 2 18 0 25 -3 6 -5 1 -5 -13z"/>
</g>
</svg>
